<svg version="1.1" id="Layer_1" xmlns="http://www.w3.org/2000/svg" xmlns:xlink="http://www.w3.org/1999/xlink" x="0px" y="0px"
	 width="100%" viewBox="0 0 512 512" enable-background="new 0 0 512 512" xml:space="preserve">
<path fill="#E5E9F2" opacity="1.000000" stroke="none" 
	d="
M37.000000,1.000000 
	C92.687561,1.000000 148.375122,1.000000 204.530090,1.468656 
	C205.001358,23.469147 205.005203,45.000980 204.550842,66.637894 
	C198.787079,66.779121 193.481384,66.802032 188.175995,66.854286 
	C178.386780,66.950676 171.889114,72.889511 171.884796,81.723305 
	C171.880508,90.510399 178.499802,96.689285 188.108109,96.852501 
	C193.740173,96.948181 199.372589,97.024422 205.002228,97.571190 
	C205.004120,117.530037 205.008652,137.027084 204.554321,156.628830 
	C198.787689,156.770111 193.479767,156.793518 188.172150,156.846161 
	C178.381042,156.943298 171.880096,162.887299 171.876846,171.724457 
	C171.873611,180.518097 178.493988,186.699844 188.105865,186.862442 
	C193.740524,186.957764 199.375519,187.032166 205.006042,187.577332 
	C205.004242,207.538635 205.006775,227.038544 204.550949,246.642578 
	C198.786865,246.781601 193.481003,246.802490 188.175446,246.854462 
	C178.386383,246.950348 171.888809,252.890076 171.884811,261.724182 
	C171.880844,270.511139 178.500626,276.689117 188.109299,276.852692 
	C193.741302,276.948547 199.373611,277.027039 205.002869,277.574890 
	C204.994812,336.301056 204.989670,394.565704 204.522415,452.906799 
	C150.917068,452.989044 97.773849,452.995209 44.630630,453.000275 
	C34.971493,453.001221 29.999504,447.978149 29.999485,438.221558 
	C29.999226,299.116089 30.025381,160.010635 29.928528,20.905239 
	C29.923241,13.309403 29.799908,6.069425 37.511913,1.708669 
	C37.341274,1.472447 37.170635,1.236224 37.000000,1.000000 
M142.761627,242.229187 
	C137.715775,229.614136 125.965828,227.201233 116.268303,236.842163 
	C109.806419,243.266327 103.430237,249.776703 96.752594,256.513947 
	C93.957336,253.632950 91.690132,251.198639 89.318680,248.870499 
	C82.495827,242.172287 73.173851,241.851532 67.089508,248.054489 
	C61.099155,254.161621 61.435448,263.184174 68.009071,269.884369 
	C73.606644,275.589691 79.280312,281.221008 84.961830,286.843140 
	C92.598053,294.399475 100.992325,294.408325 108.621941,286.829926 
	C118.191650,277.324463 127.626579,267.681885 137.280182,258.263000 
	C141.655823,253.993744 143.838348,249.155060 142.761627,242.229187 
M107.295845,155.795700 
	C103.814056,159.253922 100.332260,162.712143 96.466248,166.551987 
	C93.480392,163.364578 91.101486,160.560333 88.448128,158.045715 
	C82.220375,152.143570 73.124352,152.127853 67.290787,157.851196 
	C61.426811,163.604370 61.225670,172.744720 67.144745,178.950912 
	C73.352509,185.459824 79.732460,191.813156 86.220161,198.043945 
	C92.390694,203.970154 101.212173,204.019333 107.353081,198.027054 
	C117.965256,187.671783 128.461060,177.192123 138.806564,166.570709 
	C144.758865,160.459671 144.580170,151.171646 138.839462,145.408905 
	C133.017563,139.564667 124.047806,139.514786 117.719749,145.428375 
	C114.313103,148.611893 111.097534,151.999908 107.295845,155.795700 
M106.897087,378.545105 
	C117.150078,368.301605 127.553017,358.201050 137.550537,347.714020 
	C140.045380,345.097015 142.066986,341.416840 142.838303,337.903137 
	C144.213028,331.640747 140.823273,325.774536 135.387695,322.885132 
	C129.438828,319.722961 122.872086,320.437805 117.882729,325.306213 
	C110.869545,332.149414 104.110512,339.253082 96.919106,346.574890 
	C93.991753,343.600342 91.603889,341.083466 89.118881,338.666473 
	C82.486046,332.215149 73.270294,331.917847 67.233086,337.909454 
	C61.153236,343.943390 61.367916,353.087219 67.874901,359.743988 
	C73.580521,365.580963 79.378151,371.329010 85.187370,377.063385 
	C91.747612,383.539124 98.404411,384.124420 106.897087,378.545105 
M110.477310,104.992630 
	C119.548729,95.921249 128.788315,87.008385 137.584091,77.677162 
	C140.065445,75.044731 142.083405,71.367409 142.841324,67.851860 
	C144.195648,61.570007 140.797638,55.738541 135.339584,52.860382 
	C129.382492,49.719070 122.838615,50.456177 117.841980,55.345043 
	C110.839188,62.196804 104.089462,69.307213 96.515770,77.037498 
	C93.690224,73.834679 91.528587,71.081421 89.057327,68.641815 
	C82.485619,62.154301 73.204445,61.930237 67.188103,67.954895 
	C61.135380,74.015999 61.395546,83.115372 67.920189,89.793175 
	C73.043037,95.036270 78.273499,100.174278 83.460381,105.354736 
	C93.064171,114.946587 100.434998,114.984924 110.477310,104.992630 
z"/>
<path fill="#CFD7E6" opacity="1.000000" stroke="none" 
	d="
M205.013168,156.524139 
	C205.008652,137.027084 205.004120,117.530037 204.982986,97.449020 
	C204.966370,96.865067 204.933792,96.619888 205.399323,96.710709 
	C247.160812,96.820290 288.456787,96.853325 329.752747,96.847450 
	C339.656403,96.846046 346.837708,90.464813 346.833191,81.821854 
	C346.828583,72.893867 340.061218,66.875031 329.854980,66.862572 
	C304.211304,66.831276 278.567535,66.828995 252.923889,66.859688 
	C236.942230,66.878822 220.960678,66.979126 204.994293,66.915909 
	C205.009491,66.788811 205.009064,66.532814 205.009064,66.532814 
	C205.005203,45.000980 205.001358,23.469147 204.998749,1.468656 
	C260.354218,1.000000 315.708466,1.000000 371.229675,1.282993 
	C377.928436,5.532875 379.950897,11.888666 379.955688,18.917171 
	C380.020355,113.932152 379.992981,208.947189 379.755371,304.012390 
	C379.522339,304.062561 379.067688,304.205841 378.612854,304.132324 
	C373.184418,304.440125 368.152252,304.460785 363.245972,305.257080 
	C294.330170,316.442596 255.545227,389.651733 284.481506,452.937744 
	C257.672668,452.917755 231.328598,452.874054 204.984543,452.830322 
	C204.989670,394.565704 204.994812,336.301056 204.983795,277.453735 
	C204.967667,276.871033 204.934830,276.627930 205.400513,276.717041 
	C247.162186,276.823364 288.458160,276.854828 329.754120,276.847534 
	C339.657166,276.845795 346.838715,270.463470 346.833191,261.820557 
	C346.827484,252.892349 340.060638,246.874146 329.853668,246.862579 
	C302.877899,246.832001 275.902039,246.829971 248.926300,246.860077 
	C234.276917,246.876419 219.627625,246.981430 204.993683,246.919922 
	C205.009048,246.793381 205.009308,246.538467 205.009308,246.538467 
	C205.006775,227.038544 205.004242,207.538635 204.990234,187.452606 
	C204.978760,186.866501 204.943375,186.617569 205.408417,186.706497 
	C247.326614,186.814224 288.779785,186.865234 330.232880,186.827682 
	C339.805054,186.819016 346.707520,180.422897 346.821411,171.815704 
	C346.934906,163.240204 340.021851,156.891815 330.335815,156.872070 
	C307.195190,156.824890 284.054352,156.832367 260.913666,156.862808 
	C242.271622,156.887329 223.629684,156.977783 205.003357,156.910736 
	C205.019028,156.782471 205.013168,156.524139 205.013168,156.524139 
z"/>
<path fill="#000000" opacity="1.000000" stroke="none" 
	d="
M379.988373,303.962219 
	C379.992981,208.947189 380.020355,113.932152 379.955688,18.917171 
	C379.950897,11.888666 377.928436,5.532875 371.698364,1.282993 
	C418.973145,1.000000 465.946289,1.000000 512.936646,1.000000 
	C512.936646,171.666672 512.936646,342.333344 512.936646,513.000000 
	C475.561310,513.000000 438.249298,513.000000 400.464844,512.609619 
	C400.652222,511.821625 401.265381,511.217316 401.978638,511.056091 
	C427.370178,505.318542 448.176056,492.197876 463.675720,471.369415 
	C481.226105,447.785187 487.167908,421.088623 483.055511,392.033997 
	C480.159454,371.573029 471.589996,353.597137 457.815735,338.554932 
	C437.056519,315.884766 411.266815,303.484985 379.988373,303.962219 
z"/>
<path fill="#000000" opacity="1.000000" stroke="none" 
	d="
M204.522415,452.906799 
	C231.328598,452.874054 257.672668,452.917755 284.505981,453.318207 
	C290.150269,461.771240 294.396545,470.661926 300.641052,477.805969 
	C315.754456,495.096588 334.770050,506.443420 357.501740,511.122467 
	C358.104431,511.246490 358.505127,512.352112 359.000000,513.000000 
	C239.724304,513.000000 120.448601,513.000000 1.086453,513.000000 
	C1.086453,342.333374 1.086453,171.666687 1.083011,1.000007 
	C12.740607,1.000000 24.401646,1.000000 36.531342,1.000000 
	C37.170635,1.236224 37.341274,1.472447 37.511913,1.708669 
	C29.799908,6.069425 29.923241,13.309403 29.928528,20.905239 
	C30.025381,160.010635 29.999226,299.116089 29.999485,438.221558 
	C29.999504,447.978149 34.971493,453.001221 44.630630,453.000275 
	C97.773849,452.995209 150.917068,452.989044 204.522415,452.906799 
z"/>
<path fill="#293466" opacity="1.000000" stroke="none" 
	d="
M379.755371,304.012390 
	C411.266815,303.484985 437.056519,315.884766 457.815735,338.554932 
	C471.589996,353.597137 480.159454,371.573029 483.055511,392.033997 
	C487.167908,421.088623 481.226105,447.785187 463.675720,471.369415 
	C448.176056,492.197876 427.370178,505.318542 401.978638,511.056091 
	C401.265381,511.217316 400.652222,511.821625 399.996185,512.609619 
	C393.312347,513.000000 386.624725,513.000000 379.487488,512.531616 
	C379.042908,502.443298 379.047882,492.823334 379.287201,483.121155 
	C379.521545,483.038971 379.978149,482.843353 380.421204,482.902466 
	C426.718323,482.199493 461.159271,440.025482 452.794891,394.880310 
	C446.317108,359.917603 414.226685,333.153290 379.752502,334.046234 
	C379.526062,333.942719 379.055481,333.779785 379.060974,333.324951 
	C379.066864,323.315369 379.067261,313.760590 379.067688,304.205841 
	C379.067688,304.205841 379.522339,304.062561 379.755371,304.012390 
z"/>
<path fill="#4E588D" opacity="1.000000" stroke="none" 
	d="
M378.612854,304.132324 
	C379.067261,313.760590 379.066864,323.315369 378.620300,333.419647 
	C321.051361,335.993317 286.625946,396.335693 314.911987,445.366394 
	C329.028198,469.835297 351.055145,481.806549 379.052856,483.203339 
	C379.047882,492.823334 379.042908,502.443298 379.018982,512.531616 
	C372.645599,513.000000 366.291199,513.000000 359.468384,513.000000 
	C358.505127,512.352112 358.104431,511.246490 357.501740,511.122467 
	C334.770050,506.443420 315.754456,495.096588 300.641052,477.805969 
	C294.396545,470.661926 290.150269,461.771240 284.970764,453.294464 
	C255.545227,389.651733 294.330170,316.442596 363.245972,305.257080 
	C368.152252,304.460785 373.184418,304.440125 378.612854,304.132324 
z"/>
<path fill="#25B283" opacity="1.000000" stroke="none" 
	d="
M142.844543,242.636749 
	C143.838348,249.155060 141.655823,253.993744 137.280182,258.263000 
	C127.626579,267.681885 118.191650,277.324463 108.621941,286.829926 
	C100.992325,294.408325 92.598053,294.399475 84.961830,286.843140 
	C79.280312,281.221008 73.606644,275.589691 68.009071,269.884369 
	C61.435448,263.184174 61.099155,254.161621 67.089508,248.054489 
	C73.173851,241.851532 82.495827,242.172287 89.318680,248.870499 
	C91.690132,251.198639 93.957336,253.632950 96.752594,256.513947 
	C103.430237,249.776703 109.806419,243.266327 116.268303,236.842163 
	C125.965828,227.201233 137.715775,229.614136 142.844543,242.636749 
z"/>
<path fill="#25B283" opacity="1.000000" stroke="none" 
	d="
M107.545799,155.545670 
	C111.097534,151.999908 114.313103,148.611893 117.719749,145.428375 
	C124.047806,139.514786 133.017563,139.564667 138.839462,145.408905 
	C144.580170,151.171646 144.758865,160.459671 138.806564,166.570709 
	C128.461060,177.192123 117.965256,187.671783 107.353081,198.027054 
	C101.212173,204.019333 92.390694,203.970154 86.220161,198.043945 
	C79.732460,191.813156 73.352509,185.459824 67.144745,178.950912 
	C61.225670,172.744720 61.426811,163.604370 67.290787,157.851196 
	C73.124352,152.127853 82.220375,152.143570 88.448128,158.045715 
	C91.101486,160.560333 93.480392,163.364578 96.466248,166.551987 
	C100.332260,162.712143 103.814056,159.253922 107.545799,155.545670 
z"/>
<path fill="#25B283" opacity="1.000000" stroke="none" 
	d="
M106.613449,378.782471 
	C98.404411,384.124420 91.747612,383.539124 85.187370,377.063385 
	C79.378151,371.329010 73.580521,365.580963 67.874901,359.743988 
	C61.367916,353.087219 61.153236,343.943390 67.233086,337.909454 
	C73.270294,331.917847 82.486046,332.215149 89.118881,338.666473 
	C91.603889,341.083466 93.991753,343.600342 96.919106,346.574890 
	C104.110512,339.253082 110.869545,332.149414 117.882729,325.306213 
	C122.872086,320.437805 129.438828,319.722961 135.387695,322.885132 
	C140.823273,325.774536 144.213028,331.640747 142.838303,337.903137 
	C142.066986,341.416840 140.045380,345.097015 137.550537,347.714020 
	C127.553017,358.201050 117.150078,368.301605 106.613449,378.782471 
z"/>
<path fill="#25B283" opacity="1.000000" stroke="none" 
	d="
M110.225945,105.245209 
	C100.434998,114.984924 93.064171,114.946587 83.460381,105.354736 
	C78.273499,100.174278 73.043037,95.036270 67.920189,89.793175 
	C61.395546,83.115372 61.135380,74.015999 67.188103,67.954895 
	C73.204445,61.930237 82.485619,62.154301 89.057327,68.641815 
	C91.528587,71.081421 93.690224,73.834679 96.515770,77.037498 
	C104.089462,69.307213 110.839188,62.196804 117.841980,55.345043 
	C122.838615,50.456177 129.382492,49.719070 135.339584,52.860382 
	C140.797638,55.738541 144.195648,61.570007 142.841324,67.851860 
	C142.083405,71.367409 140.065445,75.044731 137.584091,77.677162 
	C128.788315,87.008385 119.548729,95.921249 110.225945,105.245209 
z"/>
<path fill="#35A6E4" opacity="1.000000" stroke="none" 
	d="
M204.994568,186.991241 
	C199.375519,187.032166 193.740524,186.957764 188.105865,186.862442 
	C178.493988,186.699844 171.873611,180.518097 171.876846,171.724457 
	C171.880096,162.887299 178.381042,156.943298 188.172150,156.846161 
	C193.479767,156.793518 198.787689,156.770111 204.554321,156.628830 
	C205.013168,156.524139 205.019028,156.782471 205.001343,157.376312 
	C204.970230,167.519287 204.956802,177.068436 204.943359,186.617569 
	C204.943375,186.617569 204.978760,186.866501 204.994568,186.991241 
z"/>
<path fill="#30A8E6" opacity="1.000000" stroke="none" 
	d="
M204.986725,276.992188 
	C199.373611,277.027039 193.741302,276.948547 188.109299,276.852692 
	C178.500626,276.689117 171.880844,270.511139 171.884811,261.724182 
	C171.888809,252.890076 178.386383,246.950348 188.175446,246.854462 
	C193.481003,246.802490 198.786865,246.781601 204.550949,246.642578 
	C205.009308,246.538467 205.009048,246.793381 204.993073,247.384918 
	C204.963013,257.526947 204.948929,267.077423 204.934830,276.627930 
	C204.934830,276.627930 204.967667,276.871033 204.986725,276.992188 
z"/>
<path fill="#30A8E6" opacity="1.000000" stroke="none" 
	d="
M204.985596,96.987228 
	C199.372589,97.024422 193.740173,96.948181 188.108109,96.852501 
	C178.499802,96.689285 171.880508,90.510399 171.884796,81.723305 
	C171.889114,72.889511 178.386780,66.950676 188.175995,66.854286 
	C193.481384,66.802032 198.787079,66.779121 204.550842,66.637894 
	C205.009064,66.532814 205.009491,66.788811 204.993439,67.381149 
	C204.962860,77.522293 204.948318,87.071091 204.933792,96.619888 
	C204.933792,96.619888 204.966370,96.865067 204.985596,96.987228 
z"/>
<path fill="#2B7BCC" opacity="1.000000" stroke="none" 
	d="
M205.400513,276.717041 
	C204.948929,267.077423 204.963013,257.526947 204.977692,247.511444 
	C219.627625,246.981430 234.276917,246.876419 248.926300,246.860077 
	C275.902039,246.829971 302.877899,246.832001 329.853668,246.862579 
	C340.060638,246.874146 346.827484,252.892349 346.833191,261.820557 
	C346.838715,270.463470 339.657166,276.845795 329.754120,276.847534 
	C288.458160,276.854828 247.162186,276.823364 205.400513,276.717041 
z"/>
<path fill="#2B7BCC" opacity="1.000000" stroke="none" 
	d="
M205.399323,96.710709 
	C204.948318,87.071091 204.962860,77.522293 204.978241,67.508247 
	C220.960678,66.979126 236.942230,66.878822 252.923889,66.859688 
	C278.567535,66.828995 304.211304,66.831276 329.854980,66.862572 
	C340.061218,66.875031 346.828583,72.893867 346.833191,81.821854 
	C346.837708,90.464813 339.656403,96.846046 329.752747,96.847450 
	C288.456787,96.853325 247.160812,96.820290 205.399323,96.710709 
z"/>
<path fill="#297ACC" opacity="1.000000" stroke="none" 
	d="
M205.408417,186.706497 
	C204.956802,177.068436 204.970230,167.519287 204.985672,157.504578 
	C223.629684,156.977783 242.271622,156.887329 260.913666,156.862808 
	C284.054352,156.832367 307.195190,156.824890 330.335815,156.872070 
	C340.021851,156.891815 346.934906,163.240204 346.821411,171.815704 
	C346.707520,180.422897 339.805054,186.819016 330.232880,186.827682 
	C288.779785,186.865234 247.326614,186.814224 205.408417,186.706497 
z"/>
<path fill="#CED6E5" opacity="1.000000" stroke="none" 
	d="
M379.978912,334.149750 
	C414.226685,333.153290 446.317108,359.917603 452.794891,394.880310 
	C461.159271,440.025482 426.718323,482.199493 380.423553,482.444092 
	C379.984650,466.356781 380.015747,450.786835 379.947205,435.217346 
	C379.939545,433.479065 379.365936,431.743317 379.141418,429.749603 
	C379.534637,429.048523 379.841248,428.604248 380.448669,428.011658 
	C382.760529,425.875336 384.631073,423.715546 386.809845,421.932373 
	C392.720123,417.095184 394.871552,410.969330 394.455200,403.411499 
	C394.043945,395.946777 394.399170,388.441589 394.354065,380.954529 
	C394.292297,370.706329 390.185638,365.860840 379.980194,363.412170 
	C379.981506,353.350891 379.980225,343.750336 379.978912,334.149750 
z"/>
<path fill="#E5E8F1" opacity="1.000000" stroke="none" 
	d="
M379.054810,430.006409 
	C379.365936,431.743317 379.939545,433.479065 379.947205,435.217346 
	C380.015747,450.786835 379.984650,466.356781 379.980469,482.384949 
	C379.978149,482.843353 379.521545,483.038971 379.287201,483.121155 
	C351.055145,481.806549 329.028198,469.835297 314.911987,445.366394 
	C286.625946,396.335693 321.051361,335.993317 378.614838,333.874481 
	C379.055481,333.779785 379.526062,333.942719 379.752502,334.046234 
	C379.980225,343.750336 379.981506,353.350891 379.755493,363.518707 
	C379.528168,364.085938 379.061157,364.257629 378.683350,364.177887 
	C369.201385,365.912811 364.727448,370.958862 364.382111,380.155029 
	C364.108124,387.451843 366.064758,395.611603 363.392944,401.823395 
	C360.636566,408.231781 353.433472,412.701630 348.265564,418.105408 
	C342.380890,424.258667 342.263367,433.455200 347.881256,439.254303 
	C353.800537,445.364502 362.808167,445.404724 369.345490,439.300446 
	C372.619843,436.243011 375.820709,433.106934 379.054810,430.006409 
z"/>
<path fill="#EC576B" opacity="1.000000" stroke="none" 
	d="
M379.141418,429.749634 
	C375.820709,433.106934 372.619843,436.243011 369.345490,439.300446 
	C362.808167,445.404724 353.800537,445.364502 347.881256,439.254303 
	C342.263367,433.455200 342.380890,424.258667 348.265564,418.105408 
	C353.433472,412.701630 360.636566,408.231781 363.392944,401.823395 
	C366.064758,395.611603 364.108124,387.451843 364.382111,380.155029 
	C364.727448,370.958862 369.201385,365.912811 378.678314,364.628723 
	C379.043732,384.438965 379.007904,403.718781 379.077637,422.998199 
	C379.083893,424.720062 379.774933,426.439453 380.147888,428.159973 
	C379.841248,428.604248 379.534637,429.048523 379.141418,429.749634 
z"/>
<path fill="#DE286C" opacity="1.000000" stroke="none" 
	d="
M380.448669,428.011658 
	C379.774933,426.439453 379.083893,424.720062 379.077637,422.998199 
	C379.007904,403.718781 379.043732,384.438965 379.056152,364.708435 
	C379.061157,364.257629 379.528168,364.085938 379.752869,363.979370 
	C390.185638,365.860840 394.292297,370.706329 394.354065,380.954529 
	C394.399170,388.441589 394.043945,395.946777 394.455200,403.411499 
	C394.871552,410.969330 392.720123,417.095184 386.809845,421.932373 
	C384.631073,423.715546 382.760529,425.875336 380.448669,428.011658 
z"/>
</svg>